<svg version="1.2" baseProfile="tiny-ps" xmlns="http://www.w3.org/2000/svg" viewBox="0 0 992 848" width="992" height="848">
	<title>53_Brand-ai</title>
	<defs>
		<linearGradient id="grd1" gradientUnits="userSpaceOnUse"  x1="405.7" y1="200" x2="329.5" y2="538.5">
			<stop offset="0" stop-color="#20b6ff"  />
			<stop offset="1" stop-color="#0b2d92"  />
		</linearGradient>
		<linearGradient id="grd2" gradientUnits="userSpaceOnUse"  x1="408.9" y1="454.3" x2="325.1" y2="826.9">
			<stop offset="0" stop-color="#20b6ff"  />
			<stop offset="1" stop-color="#0b2d92"  />
		</linearGradient>
		<linearGradient id="grd3" gradientUnits="userSpaceOnUse"  x1="617" y1="620.2" x2="519.6" y2="484.9">
			<stop offset="0" stop-color="#20b6ff"  />
			<stop offset="1" stop-color="#0b2d92"  />
		</linearGradient>
		<linearGradient id="grd4" gradientUnits="userSpaceOnUse"  x1="168.7" y1="76.3" x2="761.5" y2="76.3">
			<stop offset="0" stop-color="#00ffe5"  />
			<stop offset="1" stop-color="#1a69f4"  />
		</linearGradient>
		<linearGradient id="grd5" gradientUnits="userSpaceOnUse"  x1="168.7" y1="414" x2="841" y2="414">
			<stop offset="0" stop-color="#00ffe5"  />
			<stop offset="1" stop-color="#1a69f4"  />
		</linearGradient>
	</defs>
	<style>
		tspan { white-space:pre }
		.s0 { fill: url(#grd1) } 
		.s1 { fill: url(#grd2) } 
		.s2 { fill: url(#grd3) } 
		.s3 { fill: url(#grd4) } 
		.s4 { fill: url(#grd5) } 
	</style>
	<g id="graphics">
		<g id="&lt;Group&gt;">
			<path id="&lt;Path&gt;" class="s0" d="m168.7 476.19v-91.41c0-76.77 62.24-139.01 139.01-139.01h65.06v91.41h-65.06c-76.77 0-139.01 62.24-139.01 139.01z" />
			<path id="&lt;Path&gt;" class="s1" d="m372.77 504.7v100.98l-204.07 157.24v-119.21c0-76.77 62.24-139.01 139.01-139.01h65.06z" />
			<path id="&lt;Path&gt;" class="s2" d="m745.75 372.11c18.19 12.11 34.42 26.94 48.1 43.91l-0.01 0.01c37.73 83.4-59.57 179.37-158.68 179.37h-31.77c16.67 0 40.88-17.8 40.88-45.71c0-27.9-24.21-45.71-40.88-45.71l-49.53 0.63c86.84-2.21 160.75-56.35 191.89-132.52z" />
			<path id="&lt;Path&gt;" class="s3" d="m168.7 504.7v-28.51c0-76.77 62.24-139.01 139.01-139.01h216.24c16.67 0 40.88-17.8 40.88-45.7c0-27.9-24.21-45.71-40.88-45.71h-216.24c-76.77 0-139.01 62.24-139.01 139.01v-167.52c0-76.77 62.24-139.01 139.01-139.01h240.61c117.76 0 213.22 95.46 213.22 213.22c0 117.75-95.46 213.22-213.22 213.22h-240.61c-76.77 0-139.01 62.24-139.01 139.01v-139.01z" />
			<path id="&lt;Path&gt;" class="s4" d="m168.7 734.41c0-76.77 62.24-139.01 139.01-139.01h327.45c99.11 0 196.41-95.96 158.68-179.37l0.01-0.02c29.48 36.56 47.13 83.06 47.13 133.68c0 117.75-95.46 213.22-213.22 213.22h-459.05v-28.51z" />
		</g>
	</g>
</svg>